<?xml version="1.0" ?><svg height="58px" version="1.1" viewBox="0 0 58 58" width="58px" xmlns="http://www.w3.org/2000/svg" xmlns:xlink="http://www.w3.org/1999/xlink"><title/><desc/><defs/><g fill="none" fill-rule="evenodd" id="Page-1" stroke="none" stroke-width="1"><g id="020---Star" transform="translate(-1.000000, 0.000000)"><path d="M31.7569,1.14435 L39.2006,16.94809 C39.4742047,17.5450605 40.0274966,17.9662669 40.67576,18.07109 L57.32037,20.60534 C58.0728338,20.7512497 58.6840769,21.2991656 58.9110909,22.0312558 C59.1381048,22.7633461 58.9440977,23.560962 58.4062,24.107 L46.36205,36.40845 C45.8969861,36.8906851 45.6879532,37.5647752 45.79858,38.22553 L48.64182,55.59553 C48.7969313,56.3422303 48.5093863,57.1116407 47.9025754,57.5735945 C47.2957646,58.0355484 46.4775729,58.1079148 45.7991,57.75964 L30.9117,49.55864 C30.3445605,49.2442297 29.6554395,49.2442297 29.0883,49.55864 L14.2009,57.75964 C13.5224271,58.1079148 12.7042354,58.0355484 12.0974246,57.5735945 C11.4906137,57.1116407 11.2030687,56.3422303 11.35818,55.59553 L14.20142,38.22553 C14.3120468,37.5647752 14.1030139,36.8906851 13.63795,36.40845 L1.5938,24.107 C1.05593046,23.5609597 0.861941478,22.7633618 1.08895299,22.0312898 C1.31596449,21.2992177 1.92718692,20.7513115 2.67963,20.60539 L19.32424,18.0711 C19.9725034,17.9662769 20.5257953,17.5450705 20.7994,16.9481 L28.2431,1.14435 C28.5505421,0.448721422 29.2394609,-5.16717968e-06 30,-5.16717968e-06 C30.7605391,-5.16717968e-06 31.4494579,0.448721422 31.7569,1.14435 Z" fill="#F6AB27" id="Shape"/><path d="M18.14844,38.87158 C18.4633166,36.9540814 17.8494148,35.0009438 16.49414,33.6084 L7.07031,23.98291 L19.92676,22.02591 C21.8914891,21.7210725 23.5752482,20.4575107 24.417,18.65625 L30,6.80225 L35.581,18.65283 C36.4226712,20.4555677 38.1072282,21.720432 40.07319,22.02583 L52.92964,23.98283 L43.50386,33.61027 C42.1493392,35.0034307 41.5362139,36.9566633 41.85156,38.874 L44.03613,52.22166 L32.8418,46.05518 C31.0734665,45.0789497 28.9278569,45.0785721 27.15918,46.05418 L15.96387,52.22168 L18.14844,38.87158 Z" fill="#F4CD1E" id="Shape"/></g></g></svg>